<svg xmlns="http://www.w3.org/2000/svg" viewBox="0 0 24 24" fill="none" stroke="currentColor" stroke-width="1.5" stroke-linecap="round" stroke-linejoin="round">
  <path d="M19.439 7.85c-.049.322.059.648.289.878l1.568 1.568c.47.47.706 1.087.706 1.704s-.235 1.233-.706 1.704l-1.611 1.611a.98.98 0 0 1-.837.276c-.47-.07-.802-.48-.968-.925a2.501 2.501 0 1 0-3.214 3.214c.446.166.855.497.925.968a.979.979 0 0 1-.276.837l-1.61 1.61a2.404 2.404 0 0 1-1.705.707 2.402 2.402 0 0 1-1.704-.706l-1.568-1.568a1.026 1.026 0 0 0-.877-.29c-.493.074-.84.504-1.02.968a2.5 2.5 0 1 1-3.237-3.237c.464-.18.894-.527.967-1.02a1.026 1.026 0 0 0-.289-.877l-1.568-1.568A2.402 2.402 0 0 1 1.998 12c0-.617.236-1.234.707-1.704L4.23 8.77a.979.979 0 0 1 .837-.276c.47.07.802.48.968.925a2.501 2.501 0 1 0 3.214-3.214c-.446-.166-.855-.497-.925-.968a.979.979 0 0 1 .276-.837l1.627-1.627a2.404 2.404 0 0 1 3.409 0l1.568 1.568c.219.22.556.328.878.29.493-.075.84-.505 1.02-.969a2.5 2.5 0 1 1 3.237 3.237c-.464.18-.894.527-.968 1.02z"/>
</svg>
